<?xml version="1.0" encoding="utf-8"?>
<!-- Generator: Adobe Illustrator 17.0.0, SVG Export Plug-In . SVG Version: 6.00 Build 0)  -->
<!DOCTYPE svg PUBLIC "-//W3C//DTD SVG 1.1//EN" "http://www.w3.org/Graphics/SVG/1.1/DTD/svg11.dtd">
<svg version="1.1" id="Layer_1" xmlns="http://www.w3.org/2000/svg" xmlns:xlink="http://www.w3.org/1999/xlink" x="0px" y="0px"
	 width="266.073px" height="50px" viewBox="0 0 266.073 50" enable-background="new 0 0 266.073 50" xml:space="preserve">
<g>
	<path fill="#3B579D" d="M25,49.929L25,49.929C11.234,49.929,0.071,38.766,0.071,25l0,0C0.071,11.234,11.234,0.071,25,0.071l0,0
		c13.766,0,24.929,11.163,24.929,24.929l0,0C49.929,38.766,38.766,49.929,25,49.929z"/>
	<path id="f" fill="#FFFFFF" d="M31.482,49.929v-19.31h6.482l0.972-7.524h-7.454v-4.806c0-2.179,0.603-3.665,3.729-3.665h3.984
		V7.899c-0.688-0.09-3.056-0.294-5.808-0.294c-5.744,0-9.677,3.505-9.677,9.947V23.1h-6.497v7.524h6.497v19.305H31.482z"/>
</g>
<g>
	<path fill="#FF0000" d="M186.611,49.875L186.611,49.875c-13.77,0-24.938-11.167-24.938-24.938l0,0
		C161.674,11.167,172.841,0,186.611,0l0,0c13.77,0,24.938,11.167,24.938,24.938l0,0C211.549,38.708,200.383,49.875,186.611,49.875z"
		/>
	<path fill="#FFFFFF" d="M202.483,16.913c-0.379-1.436-1.501-2.564-2.928-2.948c-2.584-0.698-12.938-0.698-12.938-0.698
		s-10.359,0-12.938,0.698c-1.426,0.384-2.549,1.511-2.928,2.948c-0.698,2.598-0.698,8.025-0.698,8.025s0,5.426,0.693,8.025
		c0.379,1.436,1.501,2.564,2.928,2.948c2.584,0.698,12.938,0.698,12.938,0.698s10.359,0,12.938-0.698
		c1.426-0.384,2.549-1.511,2.928-2.948c0.693-2.598,0.693-8.025,0.693-8.025S203.171,19.511,202.483,16.913z M183.225,29.86v-9.845
		l8.653,4.923L183.225,29.86z"/>
</g>
<g>
	
		<linearGradient id="SVGID_1_" gradientUnits="userSpaceOnUse" x1="11467.0488" y1="15663.0371" x2="12174.124" y2="14955.9629" gradientTransform="matrix(0.05 0 0 0.05 -457.9403 -740.475)">
		<stop  offset="0" style="stop-color:#FFD521"/>
		<stop  offset="0.0551" style="stop-color:#FFD020"/>
		<stop  offset="0.1241" style="stop-color:#FEC01E"/>
		<stop  offset="0.2004" style="stop-color:#FCA71B"/>
		<stop  offset="0.2821" style="stop-color:#FA8316"/>
		<stop  offset="0.3681" style="stop-color:#F85510"/>
		<stop  offset="0.4563" style="stop-color:#F51E09"/>
		<stop  offset="0.5" style="stop-color:#F30005"/>
		<stop  offset="0.5035" style="stop-color:#F20007"/>
		<stop  offset="0.5966" style="stop-color:#E1003B"/>
		<stop  offset="0.6879" style="stop-color:#D30067"/>
		<stop  offset="0.7757" style="stop-color:#C70088"/>
		<stop  offset="0.8589" style="stop-color:#BF00A0"/>
		<stop  offset="0.9357" style="stop-color:#BB00AF"/>
		<stop  offset="1" style="stop-color:#B900B4"/>
	</linearGradient>
	<path fill="url(#SVGID_1_)" d="M133.089,50L133.089,50c-13.805,0-25-11.195-25-25l0,0c0-13.805,11.195-25,25-25l0,0
		c13.805,0,25,11.195,25,25l0,0C158.089,38.805,146.894,50,133.089,50z"/>
	<g>
		<path fill="#FFFFFF" d="M133.089,11.01c4.555,0,5.095,0.015,6.895,0.1c1.665,0.075,2.57,0.355,3.17,0.59
			c0.795,0.31,1.365,0.68,1.96,1.275c0.595,0.595,0.965,1.165,1.275,1.96c0.235,0.6,0.51,1.505,0.59,3.17
			c0.08,1.8,0.1,2.34,0.1,6.895s-0.015,5.095-0.1,6.895c-0.075,1.665-0.355,2.57-0.59,3.17c-0.31,0.795-0.68,1.365-1.275,1.96
			s-1.165,0.965-1.96,1.275c-0.6,0.235-1.505,0.51-3.17,0.59c-1.8,0.08-2.34,0.1-6.895,0.1c-4.555,0-5.095-0.015-6.895-0.1
			c-1.665-0.075-2.57-0.355-3.17-0.59c-0.795-0.31-1.365-0.68-1.96-1.275s-0.965-1.165-1.275-1.96c-0.235-0.6-0.51-1.505-0.59-3.17
			c-0.08-1.8-0.1-2.34-0.1-6.895s0.015-5.095,0.1-6.895c0.075-1.665,0.355-2.57,0.59-3.17c0.31-0.795,0.68-1.365,1.275-1.96
			s1.165-0.965,1.96-1.275c0.6-0.235,1.505-0.51,3.17-0.59C127.994,11.025,128.534,11.01,133.089,11.01 M133.089,7.935
			c-4.635,0-5.215,0.02-7.035,0.105c-1.815,0.085-3.055,0.37-4.145,0.795c-1.12,0.43-2.075,1.015-3.02,1.965
			c-0.95,0.95-1.53,1.9-1.97,3.025c-0.42,1.085-0.71,2.325-0.795,4.145s-0.105,2.4-0.105,7.035s0.02,5.215,0.105,7.035
			c0.085,1.815,0.37,3.055,0.795,4.145c0.435,1.115,1.02,2.07,1.97,3.015c0.95,0.95,1.9,1.53,3.025,1.97
			c1.085,0.42,2.325,0.71,4.145,0.795s2.4,0.105,7.035,0.105c4.635,0,5.215-0.02,7.035-0.105c1.815-0.085,3.055-0.37,4.145-0.795
			c1.115-0.435,2.07-1.02,3.015-1.97c0.95-0.95,1.53-1.9,1.97-3.025c0.42-1.085,0.71-2.325,0.795-4.145
			c0.085-1.82,0.105-2.4,0.105-7.035s-0.02-5.215-0.105-7.035c-0.085-1.815-0.37-3.055-0.795-4.145
			c-0.435-1.115-1.02-2.07-1.97-3.015c-0.95-0.95-1.9-1.53-3.025-1.97c-1.085-0.42-2.325-0.71-4.145-0.795
			C138.304,7.955,137.724,7.935,133.089,7.935L133.089,7.935z"/>
		<path fill="#FFFFFF" d="M133.089,16.235c-4.84,0-8.765,3.925-8.765,8.765s3.925,8.765,8.765,8.765s8.765-3.925,8.765-8.765
			S137.929,16.235,133.089,16.235z M133.089,30.69c-3.14,0-5.69-2.545-5.69-5.69s2.55-5.69,5.69-5.69s5.69,2.545,5.69,5.69
			S136.229,30.69,133.089,30.69z"/>
		<circle fill="#FFFFFF" cx="142.199" cy="15.89" r="2.05"/>
	</g>
</g>
<g>
	<path fill="#FF4500" d="M241.073,50L241.073,50c-13.805,0-25-11.195-25-25l0,0c0-13.805,11.195-25,25-25l0,0
		c13.805,0,25,11.195,25,25l0,0C266.073,38.805,254.878,50,241.073,50z"/>
	<path id="Fill-3" fill="#FFFFFF" d="M246.803,30.21c-1.435,0-2.605-1.17-2.605-2.605S245.368,25,246.803,25s2.605,1.17,2.605,2.605
		C249.408,29.04,248.238,30.21,246.803,30.21 M247.263,34.485c-1.78,1.775-5.185,1.915-6.185,1.915s-4.41-0.14-6.185-1.915
		c-0.265-0.265-0.265-0.69,0-0.955s0.69-0.265,0.955,0c1.12,1.12,3.515,1.52,5.23,1.52c1.71,0,4.11-0.4,5.23-1.52
		c0.265-0.265,0.69-0.265,0.955,0C247.523,33.795,247.523,34.22,247.263,34.485 M232.738,27.605c0-1.435,1.17-2.605,2.605-2.605
		s2.605,1.17,2.605,2.605s-1.17,2.605-2.605,2.605S232.738,29.04,232.738,27.605 M257.738,25c0-2.015-1.63-3.645-3.645-3.645
		c-0.985,0-1.875,0.39-2.53,1.025c-2.49-1.8-5.925-2.96-9.75-3.095l1.66-7.815l5.425,1.155c0.065,1.38,1.195,2.48,2.59,2.48
		c1.44,0,2.605-1.165,2.605-2.605s-1.165-2.605-2.605-2.605c-1.025,0-1.9,0.595-2.325,1.455l-6.06-1.29
		c-0.17-0.035-0.345-0.005-0.49,0.09s-0.245,0.24-0.28,0.41l-1.82,8.575c-0.01,0.05,0,0.095,0,0.145
		c-3.895,0.1-7.395,1.265-9.925,3.09c-0.655-0.63-1.54-1.015-2.52-1.015c-2.015,0-3.645,1.635-3.645,3.645
		c0,1.48,0.885,2.755,2.155,3.325c-0.055,0.36-0.085,0.73-0.085,1.105c0,5.61,6.53,10.155,14.585,10.155s14.585-4.545,14.585-10.155
		c0-0.37-0.03-0.735-0.085-1.095C256.843,27.765,257.738,26.49,257.738,25"/>
</g>
<g>
	<g id="Dark_Blue">
		<path fill="#1DA1F2" d="M79.051,0L79.051,0c13.805,0,25,11.195,25,25l0,0c0,13.805-11.195,25-25,25l0,0c-13.805,0-25-11.195-25-25
			l0,0C54.051,11.195,65.246,0,79.051,0z"/>
	</g>
	<g id="Logo_FIXED">
		<path fill="#FFFFFF" d="M73.251,37.7c11.79,0,18.245-9.77,18.245-18.245c0-0.275,0-0.555-0.02-0.83c1.255-0.91,2.34-2.03,3.2-3.32
			c-1.17,0.52-2.41,0.86-3.68,1.01c1.34-0.8,2.34-2.06,2.82-3.545c-1.26,0.745-2.635,1.275-4.07,1.555
			c-2.43-2.58-6.49-2.705-9.07-0.28c-1.665,1.565-2.37,3.9-1.855,6.125c-5.155-0.26-9.96-2.695-13.215-6.7
			c-1.7,2.93-0.835,6.675,1.985,8.56c-1.02-0.03-2.02-0.305-2.91-0.8c0,0.025,0,0.055,0,0.08c0,3.05,2.15,5.68,5.145,6.285
			c-0.945,0.255-1.935,0.295-2.895,0.11c0.84,2.61,3.245,4.4,5.99,4.455c-2.27,1.785-5.075,2.755-7.96,2.75
			c-0.51,0-1.02-0.03-1.525-0.095c2.92,1.885,6.335,2.885,9.815,2.88"/>
		<path fill="none" d="M79.051,0L79.051,0c13.805,0,25,11.195,25,25l0,0c0,13.805-11.195,25-25,25l0,0c-13.805,0-25-11.195-25-25
			l0,0C54.051,11.195,65.246,0,79.051,0z"/>
	</g>
</g>
</svg>
